<svg xmlns="http://www.w3.org/2000/svg" xmlns:xlink="http://www.w3.org/1999/xlink" version="1.1" width="256" height="256" viewBox="0 0 256 256" xml:space="preserve">

<defs>
</defs>
<g style="stroke: none; stroke-width: 0; stroke-dasharray: none; stroke-linecap: butt; stroke-linejoin: miter; stroke-miterlimit: 10; fill: none; fill-rule: nonzero; opacity: 1;" transform="translate(1.4065934065934016 1.4065934065934016) scale(2.81 2.81)" >
	<linearGradient id="SVGID_5" gradientUnits="userSpaceOnUse" x1="14.224" y1="76.0476" x2="75.4776" y2="14.2542">
<stop offset="0%" style="stop-color:rgb(0,84,218);stop-opacity: 1"/>
<stop offset="100%" style="stop-color:rgb(0,214,188);stop-opacity: 1"/>
</linearGradient>
<path d="M 38.052 4.497 V 15.78 C 24.668 18.934 14.968 30.921 14.968 45 c 0 16.56 13.472 30.032 30.032 30.032 c 14.079 0 26.066 -9.7 29.22 -23.084 h 11.283 C 82.159 71.355 65.156 86 45.055 86 C 22.417 86 4 67.583 4 44.945 C 4 24.844 18.645 7.841 38.052 4.497 M 42.052 0 C 18.57 1.547 0 21.072 0 44.945 C 0 69.828 20.172 90 45.055 90 C 68.928 90 88.453 71.43 90 47.948 H 70.861 C 69.396 60.936 58.38 71.032 45 71.032 c -14.377 0 -26.032 -11.655 -26.032 -26.032 c 0 -13.38 10.096 -24.396 23.084 -25.861 V 0 L 42.052 0 z" style="stroke: none; stroke-width: 1; stroke-dasharray: none; stroke-linecap: butt; stroke-linejoin: miter; stroke-miterlimit: 10; fill: url(#SVGID_5); fill-rule: nonzero; opacity: 1;" transform=" matrix(1 0 0 1 0 0) " stroke-linecap="round" />
	<linearGradient id="SVGID_6" gradientUnits="userSpaceOnUse" x1="14.3296" y1="76.1523" x2="75.5833" y2="14.359">
<stop offset="0%" style="stop-color:rgb(0,84,218);stop-opacity: 1"/>
<stop offset="100%" style="stop-color:rgb(0,214,188);stop-opacity: 1"/>
</linearGradient>
<path d="M 52.059 4.498 C 69.08 7.435 82.565 20.92 85.502 37.941 H 74.194 c -2.622 -10.978 -11.157 -19.513 -22.135 -22.135 V 4.498 M 48.059 0 v 19.153 C 59.989 20.55 69.45 30.01 70.847 41.941 H 90 C 88.518 19.453 70.547 1.482 48.059 0 L 48.059 0 z" style="stroke: none; stroke-width: 1; stroke-dasharray: none; stroke-linecap: butt; stroke-linejoin: miter; stroke-miterlimit: 10; fill: url(#SVGID_6); fill-rule: nonzero; opacity: 1;" transform=" matrix(1 0 0 1 0 0) " stroke-linecap="round" />
	<linearGradient id="SVGID_7" gradientUnits="userSpaceOnUse" x1="14.2253" y1="76.0489" x2="75.479" y2="14.2556">
<stop offset="0%" style="stop-color:rgb(0,84,218);stop-opacity: 1"/>
<stop offset="100%" style="stop-color:rgb(0,214,188);stop-opacity: 1"/>
</linearGradient>
<path d="M 44.852 57.017 c -2.79 0 -5.42 -1.708 -6.456 -4.47 l 3.745 -1.404 c 0.559 1.49 2.229 2.249 3.717 1.689 c 0.722 -0.271 1.295 -0.807 1.614 -1.509 c 0.319 -0.701 0.346 -1.485 0.075 -2.208 c -0.32 -0.853 -1.009 -1.49 -1.89 -1.749 l -0.125 -0.041 l -2.385 -0.874 c -2.067 -0.629 -3.683 -2.143 -4.44 -4.162 c -1.333 -3.555 0.475 -7.533 4.03 -8.866 c 1.721 -0.647 3.593 -0.583 5.268 0.179 c 1.675 0.761 2.953 2.129 3.599 3.852 l -3.746 1.404 c -0.271 -0.722 -0.806 -1.295 -1.508 -1.615 s -1.486 -0.345 -2.208 -0.075 c -1.49 0.559 -2.248 2.227 -1.689 3.717 c 0.32 0.853 1.008 1.49 1.89 1.749 l 0.125 0.041 l 2.385 0.874 c 2.066 0.629 3.682 2.143 4.439 4.162 c 0.646 1.722 0.583 3.593 -0.179 5.268 c -0.761 1.675 -2.129 2.953 -3.852 3.599 C 46.469 56.875 45.653 57.017 44.852 57.017 z" style="stroke: none; stroke-width: 1; stroke-dasharray: none; stroke-linecap: butt; stroke-linejoin: miter; stroke-miterlimit: 10; fill: url(#SVGID_7); fill-rule: nonzero; opacity: 1;" transform=" matrix(1 0 0 1 0 0) " stroke-linecap="round" />
	<linearGradient id="SVGID_8" gradientUnits="userSpaceOnUse" x1="7.9714" y1="69.8497" x2="69.2251" y2="8.0563">
<stop offset="0%" style="stop-color:rgb(0,84,218);stop-opacity: 1"/>
<stop offset="100%" style="stop-color:rgb(0,214,188);stop-opacity: 1"/>
</linearGradient>
<rect x="43" y="30" rx="0" ry="0" width="4" height="4.99" style="stroke: none; stroke-width: 1; stroke-dasharray: none; stroke-linecap: butt; stroke-linejoin: miter; stroke-miterlimit: 10; fill: url(#SVGID_8); fill-rule: nonzero; opacity: 1;" transform=" matrix(1 0 0 1 0 0) "/>
	<linearGradient id="SVGID_9" gradientUnits="userSpaceOnUse" x1="20.476" y1="82.245" x2="81.7296" y2="20.4516">
<stop offset="0%" style="stop-color:rgb(0,84,218);stop-opacity: 1"/>
<stop offset="100%" style="stop-color:rgb(0,214,188);stop-opacity: 1"/>
</linearGradient>
<rect x="43" y="55.01" rx="0" ry="0" width="4" height="4.99" style="stroke: none; stroke-width: 1; stroke-dasharray: none; stroke-linecap: butt; stroke-linejoin: miter; stroke-miterlimit: 10; fill: url(#SVGID_9); fill-rule: nonzero; opacity: 1;" transform=" matrix(1 0 0 1 0 0) "/>
</g>
</svg>